<svg xmlns="http://www.w3.org/2000/svg" viewBox="0 0 616.3 143.37"><defs><style>.cls-1{fill:#fff}.cls-2{fill:#f77529}.cls-3{fill:#edccca}.cls-4,.cls-5{fill:none;stroke:#fff;stroke-miterlimit:10;stroke-width:4.3px}</style></defs><title>tt_logo</title><g id="Text"><path class="cls-1" d="M37.15 43.44h30v6.71h-11.7v42.38h-6.63V50.14H37.15zM123 41.55l23.18 51h-7L133.49 80h-20.84L107 92.53h-7zm0 15.32l-7.85 17.51H131zM177 43.44h30v6.71h-11.69v42.38h-6.63V50.14H177zM429.29 43.44h6.63v49.09h-6.63zM477.89 41.47l36.3 37.31V43.44h6.7V94.8l-36.3-37.15v34.88h-6.71zM561.94 43.44h27.21v6.71h-20.58V62.4h20.58V69h-20.58v16.9h20.58v6.63h-27.21z" transform="translate(-5 -4.25)"/><g><path class="cls-1" d="M190.47 109.19h22.63v5.05h-8.83v32h-5v-32h-8.8zM242.5 109.19h5v37h-5zM310 107.65l10.1 38.55h-5l-6.1-23.55-10.55 25-10.58-25.18-6.21 23.76h-4.93l10.12-38.55 11.59 27.58zM348.69 109.19h20.51v5.05h-15.51v9.24h15.51v5h-15.51v12.72h15.51v5h-20.51zM421.55 113.32l-4.1 3.28a16.4 16.4 0 0 0-2.94-2.51 7.21 7.21 0 0 0-3.81-.83 7.34 7.34 0 0 0-4.42 1.23 3.76 3.76 0 0 0-1.7 3.17 3.85 3.85 0 0 0 1.48 3 20.23 20.23 0 0 0 5 2.82 36 36 0 0 1 5.55 2.85 14.17 14.17 0 0 1 3.26 2.92 11.49 11.49 0 0 1 1.9 3.37 11.18 11.18 0 0 1 .62 3.74 10.55 10.55 0 0 1-3.36 7.87 11.24 11.24 0 0 1-8.12 3.25 13.76 13.76 0 0 1-8.21-2.54 15.94 15.94 0 0 1-5.48-7.63l5.06-1.42q2.76 6.25 8.45 6.25a6.59 6.59 0 0 0 4.59-1.65 5.37 5.37 0 0 0 1.83-4.17 5.64 5.64 0 0 0-1-3 8.56 8.56 0 0 0-2.38-2.5 25.48 25.48 0 0 0-4.53-2.26 32.11 32.11 0 0 1-4.78-2.33 12.33 12.33 0 0 1-2.9-2.53 10.67 10.67 0 0 1-1.79-2.92 8.44 8.44 0 0 1-.57-3.11 8.7 8.7 0 0 1 3.2-6.78 11.36 11.36 0 0 1 7.76-2.8 15.72 15.72 0 0 1 6.13 1.31 12.59 12.59 0 0 1 5.26 3.92z" transform="translate(-5 -4.25)"/></g></g><g id="Twin_Suns" data-name="Twin Suns"><ellipse class="cls-2" cx="357.02" cy="63.79" rx="32.94" ry="31.9"/><ellipse class="cls-3" cx="264.81" cy="31.9" rx="32.94" ry="31.9"/></g><g id="Border"><path class="cls-4" d="M316.22 26.47h296.93a6 6 0 0 1 6 6v71.33a6 6 0 0 1-6 6H435.91" transform="translate(-5 -4.25)"/><path class="cls-5" d="M223.41 26.47H13.15a6 6 0 0 0-6 6v71.33a6 6 0 0 0 6 6H177" transform="translate(-5 -4.25)"/></g></svg>